<?xml version="1.0" encoding="utf-8"?>
<!-- Generator: Adobe Illustrator 27.5.0, SVG Export Plug-In . SVG Version: 6.00 Build 0)  -->
<svg height="20" width="20" version="1.1" id="Reference" xmlns="http://www.w3.org/2000/svg"
	xmlns:xlink="http://www.w3.org/1999/xlink" x="0px" y="0px"
	viewBox="0 0 20 20" style="enable-background:new 0 0 20 20;" xml:space="preserve">
<style type="text/css">
	.st0{fill:#BC70C4;}
	.st1{fill:#FFFFFF;}
</style>
<path class="st0" d="M17.7,3.6v2h-3.2V2.3h1.9C17.2,2.3,17.7,2.9,17.7,3.6z"/>
<rect x="2.3" y="10.4" class="st0" width="3.2" height="3.5"/>
<rect x="10.4" y="10.4" class="st0" width="7.3" height="3.4"/>
<path d="M16.4,1.4H3.5c-1.2,0-2.2,1-2.2,2.2v12.9c0,1.2,1,2.1,2.2,2.1h12.9c1.2,0,2.1-1,2.1-2.1V3.5C18.6,2.4,17.6,1.4,16.4,1.4z
	 M10.4,2.3h3.2v3.2h-3.2C10.4,5.5,10.4,2.3,10.4,2.3z M2.3,3.5c0-0.7,0.6-1.3,1.3-1.3h6v3.2H2.3C2.3,5.5,2.3,3.5,2.3,3.5z M2.3,6.3
	h11.4v3.2H2.3V6.3z M9.6,10.4v3.2H6.3v-3.2C6.3,10.4,9.6,10.4,9.6,10.4z M5.5,17.7H3.5c-0.7,0-1.3-0.6-1.3-1.3v-1.9h3.2V17.7z
	 M5.5,13.7H2.3v-3.2h3.2V13.7z M17.7,16.4c0,0.7-0.6,1.3-1.3,1.3H6.3v-3.2h11.4V16.4z M17.7,13.7h-7.3v-3.2h7.3V13.7z M17.7,9.6
	h-3.2V6.3h3.2V9.6z M17.7,5.5h-3.2V2.3h1.9c0.7,0,1.3,0.6,1.3,1.3V5.5z"/>
<path class="st1" d="M5.5,14.5v3.2H3.5c-0.7,0-1.3-0.6-1.3-1.3v-1.9H5.5z"/>
<rect x="6.3" y="10.4" class="st1" width="3.2" height="3.2"/>
<rect x="14.5" y="6.3" class="st1" width="3.2" height="3.2"/>
<rect x="10.4" y="2.3" class="st1" width="3.2" height="3.2"/>
<path class="st0" d="M17.7,14.5v1.9c0,0.7-0.6,1.3-1.3,1.3H6.3v-3.2H17.7z"/>
<rect x="2.3" y="6.3" class="st0" width="11.4" height="3.2"/>
<path class="st0" d="M9.6,2.3v3.2H2.3V3.5c0-0.7,0.6-1.3,1.3-1.3H9.6z"/>
</svg>